<?xml version="1.0" encoding="UTF-8" standalone="no"?>
<!-- Generator: Adobe Illustrator 28.4.1, SVG Export Plug-In . SVG Version: 6.00 Build 0)  -->

<svg
   version="1.1"
   id="图层_1"
   x="0px"
   y="0px"
   viewBox="0 0 199.99969 80.974998"
   xml:space="preserve"
   sodipodi:docname="DOF.svg"
   width="199.99969"
   height="80.974998"
   inkscape:version="1.3.2 (091e20e, 2023-11-25, custom)"
   xmlns:inkscape="http://www.inkscape.org/namespaces/inkscape"
   xmlns:sodipodi="http://sodipodi.sourceforge.net/DTD/sodipodi-0.dtd"
   xmlns="http://www.w3.org/2000/svg"
   xmlns:svg="http://www.w3.org/2000/svg"><defs
   id="defs14" /><sodipodi:namedview
   id="namedview14"
   pagecolor="#505050"
   bordercolor="#ffffff"
   borderopacity="1"
   inkscape:showpageshadow="0"
   inkscape:pageopacity="0"
   inkscape:pagecheckerboard="1"
   inkscape:deskcolor="#505050"
   inkscape:zoom="4.065"
   inkscape:cx="100.123"
   inkscape:cy="40.467405"
   inkscape:window-width="1920"
   inkscape:window-height="1009"
   inkscape:window-x="-8"
   inkscape:window-y="-8"
   inkscape:window-maximized="1"
   inkscape:current-layer="图层_1" />
<path
   style="fill:#ffffff"
   d="m 22.39869,32.651352 c -0.231,0.11 -0.541,0.159 -0.681,0.34 -1.203,1.559 -2.408,3.119 -3.542,4.728 -0.56,0.795 -0.825,1.968 -2.195,1.197 -1.208,-0.679 -1.781,-2.138 -1.235,-3.249 0.189,-0.384 0.494,-0.732 0.812,-1.027 1.941,-1.804 2.943,-4.59 2.599,-7.545 -3.974,1.198 -7.028,3.836 -10.2370004,6.348 0.332,-0.043 0.71,-0.207 0.985,-0.102 0.438,0.167 1.1470004,0.512 1.1480004,0.784 0.006,1.263 0.667,1.912 1.712,2.375 1.258,0.559 1.924,1.452 1.504,2.899 -0.531,1.829 -3.218,2.071 -4.8930004,0.406 -0.703,-0.699 -1.331,-1.476 -1.975,-2.232 -0.638,-0.749 -1.253,-1.516 -1.974,-2.391 -0.609,0.422 -1.186,1.091 -1.863,1.217 -0.731,0.136 -1.88800001,0.03 -2.26900001,-0.445 -0.733,-0.914 0.017,-1.66 0.98500001,-1.927 1.444,-0.398 1.828,-1.306 2.077,-2.747 0.342,-1.979 1.161,-3.89 1.911,-5.775 0.181,-0.456 0.894,-0.7 1.362,-1.041 0.137,0.136 0.274,0.272 0.411,0.408 -0.564,1.79 -1.129,3.58 -1.693,5.371 0.124,0.131 0.248,0.262 0.372,0.392 0.842,-0.284 1.72,-0.492 2.52,-0.865 3.1860004,-1.485 6.3540004,-3.011 9.5130004,-4.554 0.41,-0.2 1.011,-0.56 1.043,-0.891 0.187,-1.954 0.288,-3.922 0.304,-5.885 0.013,-1.532 0.071,-3.113 -0.265,-4.587 -0.565,-2.478 -1.285,-4.9580003 -3.499,-6.6120003 -0.363,-0.271 -0.617,-0.688 -1.062,-1.2 1.243,-0.439 2.247,-0.769 3.232,-1.146 3.337,-1.276 6.646,-2.628 10.008,-3.832 1.953,-0.70000003 3.818,-0.34900003 5.368,1.129 1.27,1.21 2.682,2.32 3.728,3.703 1.139,1.505 0.411,2.55 -1.27,3.423 -2.767,1.4360003 -5.354,3.2160003 -8.035,4.8200003 -0.513,0.307 -1.111,0.474 -1.67,0.706 -0.117,-0.173 -0.234,-0.346 -0.351,-0.519 0.349,-0.513 0.677,-1.042 1.052,-1.535 1.437,-1.889 2.893,-3.7630003 4.334,-5.6490003 0.591,-0.773 1.072,-1.531 0.327,-2.527 -0.724,-0.968 -1.575,-1.616 -2.808,-1.279 -1.594,0.436 -3.197,0.889 -4.719,1.521 -1.498,0.622 -2.9,1.476 -4.763,2.447 1.213,0.619 2.088,1.103 2.994,1.518 0.8,0.366 1.651,0.621 2.449,0.989 0.989,0.4570003 1.482,1.3530003 1.02,2.2900003 -0.191,0.387 -1.235,0.355 -1.893,0.506 -0.158,0.036 -0.323,0.04 -0.475,0.057 -0.785,2.17 -0.612,2.394 1.581,2.792 0.648,0.117 1.34,0.537 1.802,1.019 0.906,0.946 0.608,1.674 -0.69,1.953 -0.949,0.204 -2.313,0.073 -2.755,0.653 -0.632,0.828 -0.6,2.169 -0.829,3.295 -0.051,0.25 -0.007,0.519 -0.007,0.633 1.707,0 3.335,-0.023 4.963,0.005 3.919,0.066 6.538,2.625 9.28,4.921 0.221,0.185 0.347,0.586 0.366,0.895 0.185,2.987 0.3,5.971 -1.1,8.76 -0.074,0.148 -0.224,0.295 -0.221,0.439 0.073,2.815 -1.783,3.048 -3.979,3.319 -1.736,0.215 -3.386,1.098 -5.085,1.65 -0.379,0.123 -0.805,0.102 -1.209,0.147 0.028,-0.404 -0.099,-0.936 0.111,-1.191 1.152,-1.402 2.285,-2.846 3.614,-4.069 2.175,-2.002 2.622,-4.673 3.063,-7.328 0.251,-1.514 -1.709,-4.656 -3.38,-4.912 -2.106,-0.322 -4.32,0.043 -6.485,0.158 -0.199,0.011 -0.479,0.327 -0.554,0.557 -0.52,1.595 -0.995,3.205 -1.508,4.889 2.355,-0.397 2.312,-0.391 2.032,-2.401 -0.061,-0.437 0.337,-1.344 0.49,-1.336 0.887,0.043 2.129,-0.008 2.576,0.532 1.439,1.739 2.628,3.725 2.543,6.123 -0.02,0.559 -0.345,1.38 -0.775,1.599 -1.212,0.617 -2.541,1.014 -3.846,1.43 -0.378,0.121 -1.117,0.144 -1.189,-0.015 -0.175,-0.388 -0.172,-0.946 -0.034,-1.368 0.329,-1.006 0.777,-1.974 1.178,-2.957 -0.12,-0.069 -0.238,-0.137 -0.356,-0.204 z"
   id="path1" />
<path
   style="fill:#ffffff"
   d="m 108.63269,47.127352 c -3.053,0.066 -5.053,-1.717 -5.732,-5.621 -0.66,-3.797 -0.99,-7.651 -1.466,-11.48 -0.057,-0.457 -0.119,-0.914 -0.218,-1.667 -0.673,0.644 -1.063,1.239 -1.609,1.478 -0.533,0.233 -1.225,0.104 -1.848,0.134 0.127,-0.582 0.2,-1.184 0.406,-1.737 0.093,-0.251 0.441,-0.413 0.685,-0.6 1.272,-0.979 2.355,-1.95 0.414,-3.364 -0.236,-0.172 -0.295,-1.071 -0.23,-1.096 0.585,-0.226 1.527,-0.662 1.785,-0.419 2.247,2.11 3.673,0.079 5.301,-0.925 0.471,-0.29 0.938,-0.598 1.36,-0.953 5.744,-4.848 12.838,-4.576 19.074,-0.275 0.709,0.489 1.39,1.017 2.104,1.497 3.062,2.057 2.811,5.327 2.735,8.318 -0.052,2.026 -0.983,4.025 -1.489,6.044 -1.019,4.065 -4.48,5.758 -7.553,7.832 -0.247,0.167 -0.504,0.318 -0.74,0.466 0.053,0.194 0.054,0.334 0.122,0.423 0.506,0.66 1.566,1.751 1.451,1.892 -0.691,0.848 -1.559,1.667 -2.54,2.135 -1.307,0.624 -2.86,0.742 -4.151,1.391 -3.345,1.681 -6.842,1.201 -10.321,0.932 -0.489,-0.038 -1.308,-0.834 -1.286,-1.24 0.031,-0.553 0.619,-1.258 1.158,-1.559 0.87,-0.487 1.895,-0.698 2.854,-1.026 -0.087,-0.195 -0.177,-0.388 -0.266,-0.58 z m 0.042,-1.352 c 4.335,-0.306 4.382,0.364 7.791,-2.87 4.004,-3.798 6.645,-8.187 7.834,-13.45 0.329,-1.459 0.152,-3.288 -0.456,-4.652 -1.524,-3.418 -6.496,-5.427 -10.19,-4.605 -3.515,0.782 -6.002,3.244 -8.801,5.192 -0.329,0.229 -0.453,1.113 -0.317,1.592 1.14,4.009 3.656,7.501 4.101,11.82 0.242,2.341 1.258,4.598 0.038,6.973 z"
   id="path2" />
<path
   style="fill:#ffffff"
   d="m 151.50469,20.025352 c -2.303,1.478 -4.716,2.812 -6.872,4.479 -1.695,1.31 -3.975,0.494 -5.113,-1.247 -0.175,-0.267 -0.285,-0.602 -0.338,-0.919 -0.203,-1.22 2.514,-5.259 3.732,-5.516 0.276,-0.058 0.726,0.013 0.867,0.199 0.146,0.193 0.13,0.673 -0.018,0.893 -0.333,0.497 -0.814,0.892 -1.19,1.365 -0.418,0.526 -0.786,1.091 -1.175,1.639 0.127,0.148 0.254,0.296 0.381,0.444 2.814,-1.573 5.628,-3.146 8.566,-4.789 -0.173,-0.25 -0.452,-0.653 -0.853,-1.231 0.752,-0.118 1.312,-0.206 1.905,-0.299 -0.213,-3.04 -0.423,-6.0480003 -0.633,-9.0560003 -0.151,-0.043 -0.302,-0.086 -0.453,-0.128 -0.4,0.399 -0.758,0.858 -1.215,1.172 -0.265,0.182 -0.732,0.247 -1.029,0.141 -0.185,-0.066 -0.341,-0.565 -0.303,-0.842 0.221,-1.625 1.184,-2.794 2.664,-3.32 2.068,-0.734 3.569,0.586 5.042,1.769 1.229,0.987 1.09,2.192 0.469,3.43 -1.102,2.1970003 -1.892,4.4410003 -1.15,7.1410003 0.668,-0.1 1.388,-0.387 2.021,-0.255 0.721,0.15 1.364,0.674 2.04,1.036 -0.356,0.593 -0.681,1.207 -1.083,1.767 -0.144,0.201 -0.467,0.372 -0.715,0.383 -2.453,0.105 -2.649,1.687 -2.579,3.641 0.058,1.608 -0.164,3.227 -0.262,4.841 0.147,0.062 0.294,0.124 0.441,0.186 1.293,-1.238 2.585,-2.476 3.878,-3.715 0.122,0.122 0.245,0.244 0.367,0.365 -0.965,1.142 -1.937,2.279 -2.893,3.429 -1.115,1.341 -1.605,2.807 -1.651,4.634 -0.151,6.065 -0.567,12.122 -0.823,18.185 -0.086,2.036 0.061,4.082 -0.018,6.119 -0.028,0.725 -0.252,1.544 -0.657,2.134 -1.212,1.764 -1.489,1.685 -2.871,0.044 -0.438,-0.521 -1.227,-0.747 -1.978,-1.178 0.214,-0.304 0.358,-0.756 0.634,-0.86 1.686,-0.638 1.999,-2.024 2.103,-3.573 0.302,-4.511 0.632,-9.021 0.92,-13.533 0.101,-1.583 0.113,-3.171 0.165,-4.757 -0.133,-0.05 -0.267,-0.1 -0.4,-0.15 -0.717,1.453 -1.481,2.885 -2.14,4.364 -1.025,2.3 -1.881,4.682 -3.007,6.929 -0.521,1.041 -1.429,1.937 -2.309,2.736 -1.055,0.958 -2.94,0.722 -3.9,-0.404 -0.959,-1.124 -0.874,-2.106 0.137,-3.343 2.892,-3.535 5.602,-7.219 8.392,-10.838 0.268,-0.347 0.576,-0.668 0.896,-0.969 1.591,-1.496 2.578,-3.16 2.393,-5.516 -0.175,-2.228 0.046,-4.487 0.092,-6.732 -0.158,-0.099 -0.317,-0.197 -0.477,-0.295 z"
   id="path3" />
<path
   style="fill:#ffffff"
   d="m 75.33969,23.230352 c 0.344,-0.062 0.57,-0.174 0.65,-0.108 1.485,1.227 3.122,1.953 5.107,1.757 0.121,-0.012 0.502,0.663 0.414,0.865 -0.238,0.543 -0.62,1.386 -1.025,1.435 -2.518,0.3 -4.293,2.054 -6.428,3.08 -1.526,0.734 -1.905,2.231 -2.069,3.697 -0.052,0.465 0.561,1.309 1.048,1.483 4.195,1.504 8.501,2.745 12.284,5.198 1.325,0.859 2.63,1.82 3.717,2.953 0.994,1.036 0.577,2.045 -0.797,2.498 -2.15,0.71 -4.046,0.511 -5.768,-1.203 -3.285,-3.269 -7.574,-4.837 -11.723,-6.614 -0.184,-0.079 -0.416,-0.046 -0.621,-0.064 -1.938,4.517 -4.363,8.681 -7.391,12.467 -1.519,1.899 -2.225,1.856 -3.892,0.09 -0.291,-0.309 -0.563,-0.637 -1.04,-1.18 2.587,-1.024 3.991,-3.048 5.15,-5.23 1.163,-2.188 2.205,-4.445 3.203,-6.714 0.485,-1.104 -0.101,-1.553 -1.619,-1.71 -1.562,-0.161 -3.142,-0.389 -4.633,-0.851 -0.51,-0.158 -0.774,-1.113 -1.15,-1.704 0.556,-0.282 1.092,-0.617 1.673,-0.833 1.007,-0.376 2.076,-0.6 3.055,-1.033 1,-0.443 1.904,-1.096 2.882,-1.595 2.992,-1.528 3.812,-3.282 3.042,-6.609 -0.312,-1.349 0.114,-1.834 1.526,-1.739 1.64,0.11 2.566,1.005 2.879,2.67 0.111,0.59 -0.306,1.729 0.926,1.418 0.33,-0.083 0.443,-1.089 0.619,-1.682 0.054,-0.19 -0.007,-0.415 -0.019,-0.742 z"
   id="path4" />
<path
   style="fill:#ffffff"
   d="m 163.06069,49.032352 c 2.575,-1.694 5.069,-3.335 8.075,-5.313 -1.542,-0.912 -2.611,-1.584 -3.72,-2.181 -0.427,-0.231 -1.027,-0.184 -1.399,-0.463 -0.427,-0.32 -0.688,-0.862 -1.021,-1.308 0.484,-0.274 1.059,-0.874 1.436,-0.768 1.785,0.503 3.601,1.032 5.234,1.883 1.092,0.569 1.726,0.746 2.441,-0.375 0.886,-1.387 1.977,-2.654 2.754,-4.095 0.731,-1.356 0.175,-1.868 -1.299,-2.225 -3.172,-0.769 -5.064,1.664 -7.492,2.748 -0.241,0.108 -0.407,0.478 -0.635,0.506 -0.692,0.087 -1.398,0.066 -2.099,0.087 0.28,-0.63 0.387,-1.513 0.871,-1.846 1.811,-1.245 3.664,-2.485 5.65,-3.407 4.112,-1.909 8.328,0.117 9.568,4.463 0.141,0.496 0.191,1.249 -0.082,1.592 -1.231,1.546 -2.493,3.098 -3.949,4.422 -0.827,0.751 -0.768,1.131 0.037,1.583 1.393,0.78 2.775,1.627 4.259,2.187 4.393,1.656 8.668,4.063 13.659,2.623 1.11,-0.32 2.193,-0.749 3.317,-0.997 0.401,-0.088 0.887,0.21 1.334,0.332 -0.247,0.375 -0.409,0.887 -0.755,1.101 -1.623,1.002 -3.113,2.022 -4.392,3.57 -2.085,2.525 -5.051,1.646 -7.529,0.693 -2.645,-1.018 -5.084,-2.602 -7.549,-4.048 -1.9,-1.114 -3.681,-2.428 -5.566,-3.57 -0.352,-0.213 -1.012,-0.188 -1.412,-0.009 -2.211,0.99 -4.348,2.156 -6.591,3.062 -0.976,0.394 -2.256,1.114 -3.145,-0.247 z"
   id="path5" />
<path
   style="fill:#ffffff"
   d="m 69.03169,53.251352 c -2.186,1.273 -3.49,1.231 -4.796,-0.117 -0.332,-0.343 -0.578,-0.979 -0.508,-1.424 0.043,-0.275 0.74,-0.506 1.179,-0.642 0.412,-0.128 0.886,-0.049 1.306,-0.161 2.235,-0.6 3.024,-1.698 2.9,-4.026 -0.032,-0.602 -0.146,-1.199 -0.227,-1.798 -0.134,-0.992 -0.789,-2.382 0.609,-2.648 0.807,-0.153 2.444,0.668 2.652,1.366 0.76,2.554 2.725,2.769 4.766,3.158 0.468,0.089 0.853,0.614 1.276,0.939 -0.494,0.484 -0.94,1.038 -1.503,1.421 -0.262,0.179 -0.754,-0.01 -1.135,0.029 -1.248,0.127 -2.049,0.7 -2.093,2.079 -0.087,2.754 -0.23,5.506 -0.308,8.26 -0.17,6.01 -0.313,12.02 -0.469,18.031 -0.01,0.386 0.072,0.817 -0.072,1.148 -0.316,0.73 -0.748,1.409 -1.133,2.109 -0.524,-0.486 -1.083,-0.939 -1.564,-1.464 -1.459,-1.595 -1.575,-3.544 -1.493,-5.583 0.254,-6.329 0.454,-12.66 0.666,-18.99 0.018,-0.511 -0.03,-1.026 -0.053,-1.687 z"
   id="path6" />
<path
   style="fill:#ffffff"
   d="m 34.75869,52.650352 c 0.116,0.666 0.274,0.973 0.19,1.182 -0.582,1.438 -0.902,2.657 0.069,4.27 0.683,1.134 -0.909,1.986 -1.972,2.335 -5.457,1.795 -11.93,-0.183 -15.679,-4.716 -1.474,-1.783 -2.915,-3.593 -4.342,-5.414 -0.263,-0.335 -0.386,-0.78 -0.661,-1.36 -0.913,1.447 -1.523,2.28 -1.989,3.186 -0.5560004,1.081 -1.0140004,2.233 0.647,2.484 -0.138,1.342 -0.25,2.562 -0.391,3.778 -0.114,0.982 -0.7160004,1.382 -1.6250004,1.076 -1.282,-0.433 -2.2,-1.282 -2.343,-2.71 -0.35,-3.492 0.544,-5.83 3.081,-8.694 -0.991,0.162 -1.99,0.292 -2.971,0.502 -0.36,0.077 -0.718,0.538 -1.01,0.481 -0.63,-0.123 -1.514,-0.321 -1.731,-0.765 -0.189,-0.388 0.218,-1.407 0.661,-1.71 2.99,-2.046 7.2540004,-1.681 9.7330004,0.932 2.151,2.267 4.16,4.68 6.107,7.128 1.91,2.401 6.936,3.057 9.646,1.142 1.422,-1.006 2.877,-1.967 4.58,-3.127 z"
   id="path7" />
<path
   style="fill:#ffffff"
   d="m 76.26769,12.847352 c 3.048,-1.211 5.516,-2.417 8.119,-3.1270003 1.225,-0.334 2.748,0.154 4.056,0.5410003 0.499,0.148 1.194,1.209 1.057,1.58 -0.239,0.648 -1,1.166 -1.644,1.582 -0.438,0.283 -1.051,0.289 -1.581,0.435 -3.625,0.997 -4.569,2.929 -3.283,6.452 0.289,0.791 0.219,1.714 0.314,2.576 -0.945,-0.136 -2.234,0.065 -2.763,-0.477 -1.138,-1.165 -1.918,-2.692 -2.747,-4.128 -0.107,-0.186 0.369,-0.705 0.567,-1.073 0.273,-0.508 0.539,-1.019 0.808,-1.529 -0.162,-0.112 -0.324,-0.223 -0.485,-0.335 -0.808,0.833 -1.695,1.604 -2.404,2.515 -0.809,1.04 -2.301,1.09 -3.762,-0.025 -1.149,-0.877 -1.049,-1.759 -0.32,-2.972 1.554,-2.586 2.89,-5.3040003 4.302,-7.9740003 0.252,-0.476 0.374,-1.033 0.675,-1.47 0.661,-0.961 0.595,-1.704 -0.165,-2.66 -0.494,-0.621 -0.496,-1.633 -0.718,-2.46900003 0.758,-0.092 1.58,-0.418 2.263,-0.234 2.097,0.567 3.163,2.31100003 3.881,4.17000003 0.172,0.445 -0.508,1.314 -0.936,1.882 -1.645,2.183 -3.347,4.3210003 -5.234,6.7400003 z"
   id="path8" />
<path
   style="fill:#ffffff"
   d="m 60.79869,16.667352 c 1.11,-1.016 2.107,-2.215 3.366,-2.988 0.937,-0.576 2.217,-0.791 3.336,-0.768 0.403,0.008 1.146,1.21 1.097,1.815 -0.109,1.338 -0.627,2.641 -0.968,3.961 -0.082,0.317 -0.216,0.659 -0.169,0.965 0.17,1.088 0.127,2.057 -1.228,2.242 -1.318,0.18 -2.205,-0.514 -2.775,-1.642 -0.163,-0.322 -0.216,-0.7 -0.363,-1.199 -1.332,1.256 -2.56,2.403 -3.772,3.567 -0.15,0.144 -0.33,0.389 -0.306,0.561 0.144,1.044 -0.26,1.954 -1.278,1.873 -1.112,-0.089 -2.404,-0.456 -3.211,-1.165 -0.88,-0.774 -0.188,-1.834 0.34,-2.822 1.476,-2.764 2.747,-5.637 4.151,-8.44 0.739,-1.475 1.585,-2.8970003 2.387,-4.3400003 0.508,-0.915 0.836,-1.718 -0.171,-2.641 -0.361,-0.331 -0.446,-1.458 -0.156,-1.866 0.285,-0.401 1.264,-0.59 1.834,-0.45 1.446,0.355 3.483,3.173 3.494,4.669 0.009,1.189 -0.294,2.1600003 -1.46,2.9150003 -2.051,1.328 -3.39,3.32 -4.148,5.753 z"
   id="path9" />
<path
   style="fill:#ffffff"
   d="m 39.71569,58.289352 c 0.312,-1.112 0.51,-2.274 0.97,-3.32 0.37,-0.839 1.043,-1.55 1.607,-2.298 1.795,-2.38 1.024,-4.556 -1.863,-5.49 -2.47,-0.8 -4.956,-0.581 -7.346,0.029 -2.805,0.715 -5.504,1.838 -8.263,2.745 -0.823,0.27 -1.73,0.657 -2.524,0.529 -0.694,-0.112 -1.283,-0.873 -1.918,-1.348 0.527,-0.481 0.977,-1.174 1.597,-1.403 1.752,-0.648 3.571,-1.12 5.371,-1.635 4.154,-1.19 8.37,-2.106 12.703,-1.442 1.571,0.241 3.13,0.927 4.548,1.684 1.14,0.609 2.075,1.613 3.076,2.471 2.119,1.818 1.409,6.293 -1.176,7.18 -1.08,0.371 -2.315,0.335 -3.345,0.79 -0.997,0.44 -1.82,1.273 -2.719,1.934 -0.239,-0.142 -0.479,-0.284 -0.718,-0.426 z"
   id="path10" />
<path
   style="fill:#ffffff"
   d="m 171.73669,25.106352 c 0.351,-2.097 1.601,-3.066 2.855,-4.015 0.79,-0.598 1.627,-1.131 2.429,-1.713 1.039,-0.754 0.786,-1.496 -0.131,-2.089 -1.673,-1.082 -3.583,-1.101 -5.231,-0.283 -2.994,1.486 -5.881,3.209 -8.71,4.996 -1.547,0.977 -3.179,0.717 -3.549,-0.882 -0.175,-0.757 -0.076,-1.227 0.927,-1.287 0.766,-0.046 1.59,-0.343 2.248,-0.755 3.764,-2.356 7.679,-4.197 12.135,-4.969 2.7,-0.468 4.388,0.962 6.249,2.273 0.76,0.535 1.358,1.295 2.093,1.872 1.474,1.157 1.219,2.727 1.049,4.254 -0.029,0.261 -0.486,0.619 -0.794,0.678 -1.073,0.205 -2.166,0.392 -3.255,0.414 -2.012,0.041 -4.055,-0.403 -5.916,0.873 -0.541,0.371 -1.339,0.37 -2.399,0.633 z"
   id="path11" />
<path
   style="fill:#ffffff"
   d="m 159.24169,45.468352 c 0.833,-6.622 1.649,-13.246 2.537,-19.861 0.061,-0.454 0.771,-1.238 0.984,-1.178 0.663,0.188 1.366,0.603 1.79,1.138 0.276,0.349 0.199,1.08 0.101,1.607 -0.578,3.133 -1.351,6.238 -1.779,9.39 -0.376,2.771 -0.295,5.601 -0.583,8.387 -0.325,3.147 0.34,5.991 1.983,8.676 0.233,0.381 -0.039,1.072 -0.077,1.62 -0.907,-0.172 -2.025,-0.069 -2.677,-0.571 -1.469,-1.132 -1.883,-2.935 -2.02,-4.713 -0.114,-1.48 -0.023,-2.976 -0.023,-4.464 -0.079,-0.011 -0.158,-0.021 -0.236,-0.031 z"
   id="path12" />
<path
   style="fill:#ffffff"
   d="m 14.17369,17.924352 c -2.02,0.478 -3.648,-1.048 -5.3820004,-2.15 -0.429,-0.273 -0.797,-1.198 -0.673,-1.693 0.655,-2.625 -0.984,-4.2240003 -2.395,-5.9740003 -0.398,-0.494 -0.624,-1.126 -0.929,-1.695 0.748,-0.234 1.526,-0.733 2.24,-0.654 2.837,0.312 4.6480004,2.062 5.5850004,4.6620003 0.739,2.053 1.344,4.074 3.756,4.875 0.421,0.14 0.786,1.165 0.735,1.743 -0.03,0.335 -0.915,0.657 -1.461,0.862 -0.341,0.127 -0.766,0.024 -1.476,0.024 z"
   id="path13" />
<path
   style="fill:#ffffff"
   d="m 115.97369,34.601352 c -2.5,-0.329 -4.207,-1.923 -5.696,-3.738 -0.715,-0.871 -0.323,-1.628 0.837,-1.81 1.68,-0.263 5.74,2.429 6.152,4.058 0.29,1.148 -0.122,1.623 -1.293,1.49 z"
   id="path14" />
</svg>
